<svg xmlns="http://www.w3.org/2000/svg" version="1.1" xmlns:xlink="http://www.w3.org/1999/xlink" xmlns:svgjs="http://svgjs.dev/svgjs" width="1500" height="1500" viewBox="0 0 1500 1500"><rect width="1500" height="1500" fill="#ffffff"></rect><g transform="matrix(0.6666666666666666,0,0,0.6666666666666666,249.39393939393938,435.99032258064517)"><svg viewBox="0 0 396 248" data-background-color="#2979ff" preserveAspectRatio="xMidYMid meet" height="939" width="1500" xmlns="http://www.w3.org/2000/svg" xmlns:xlink="http://www.w3.org/1999/xlink"><g id="tight-bounds" transform="matrix(1,0,0,1,0.2400000000000091,0.4000000000000057)"><svg viewBox="0 0 395.52 247.2" height="247.2" width="395.52"><g><svg></svg></g><g><svg viewBox="0 0 395.52 247.2" height="247.2" width="395.52"><g transform="matrix(1,0,0,1,75.54432,74.7418074210224)"><svg viewBox="0 0 244.43135999999998 97.7163851579552" height="97.7163851579552" width="244.43135999999998"><g><svg viewBox="0 0 244.43135999999998 97.7163851579552" height="97.7163851579552" width="244.43135999999998"><g><svg viewBox="0 0 244.43135999999998 97.7163851579552" height="97.7163851579552" width="244.43135999999998"><g id="textblocktransform"><svg viewBox="0 0 244.43135999999998 97.7163851579552" height="97.7163851579552" width="244.43135999999998" id="textblock"><g><svg viewBox="0 0 244.43135999999998 97.7163851579552" height="97.7163851579552" width="244.43135999999998"><g transform="matrix(1,0,0,1,0,0)"><svg width="244.43135999999998" viewBox="5.15 -34.8 87.05 34.8" height="97.7163851579552" data-palette-color="#ffffff"><path d="M43.85-34.8L43.85 0 37.25 0 37.25-26.45 28.05 0 21.15 0 11.75-26.4 11.75 0 5.15 0 5.15-34.8 15.5-34.8 24.7-9 33.65-34.8 43.85-34.8ZM75.7 0L75.7-28.75 65.8-28.75 65.8-34.8 92.2-34.8 92.2-28.75 82.3-28.75 82.3 0 75.7 0Z" opacity="1" transform="matrix(1,0,0,1,0,0)" fill="#000000" class="wordmark-text-0" data-fill-palette-color="primary" id="text-0"></path></svg></g></svg></g></svg></g></svg></g></svg></g></svg></g><path d="M224.823 68.742L224.823 16.822 11.267 16.822 11.267 230.378 224.823 230.378 224.823 178.458 216.011 178.458 216.011 221.566 20.079 221.566 20.079 25.634 216.011 25.634 216.011 68.742Z" fill="#000000" stroke="transparent" data-fill-palette-color="tertiary"></path></svg></g><defs></defs></svg><rect width="395.52" height="247.2" fill="none" stroke="none" visibility="hidden"></rect></g></svg></g></svg>